<?xml version="1.0" standalone="no"?>
<!DOCTYPE svg PUBLIC "-//W3C//DTD SVG 20010904//EN"
 "http://www.w3.org/TR/2001/REC-SVG-20010904/DTD/svg10.dtd">
<svg version="1.0" xmlns="http://www.w3.org/2000/svg"
 width="3333.000000pt" height="2562.000000pt" viewBox="0 0 3333.000000 2562.000000"
 preserveAspectRatio="xMidYMid meet">

<g transform="translate(0.000000,2562.000000) scale(0.100000,-0.100000)"
fill="#000000" stroke="none">
<path d="M19530 24248 c-464 -35 -692 -339 -678 -902 l3 -144 -39 -5 c-142
-19 -155 -170 -35 -408 50 -100 104 -186 139 -221 15 -16 30 -42 34 -59 3 -17
6 -148 6 -290 l0 -259 -45 -21 c-59 -28 -117 -95 -139 -161 -12 -33 -20 -95
-23 -163 -2 -60 -9 -122 -15 -137 -19 -50 -187 -184 -258 -206 -19 -6 -102
-20 -184 -32 -158 -22 -228 -42 -307 -87 -99 -56 -235 -160 -334 -255 -120
-114 -141 -154 -156 -290 -8 -72 -26 -134 -89 -307 -209 -576 -269 -846 -315
-1421 -21 -262 -32 -342 -60 -426 -28 -82 -131 -328 -176 -417 -52 -102 -52
-213 1 -267 24 -25 29 -40 35 -105 11 -115 1 -218 -33 -340 -75 -263 -76 -276
-76 -655 0 -214 5 -417 14 -535 19 -237 19 -783 2 -950 -7 -66 -25 -176 -40
-245 -26 -122 -27 -132 -25 -435 3 -285 18 -504 40 -560 5 -15 3 -16 -14 -7
-46 25 -44 -15 7 -114 51 -103 120 -189 180 -226 46 -28 48 -31 43 -68 -4 -25
7 -85 31 -177 42 -165 88 -420 80 -445 -13 -42 -159 -32 -391 28 -158 41 -169
40 -318 -15 -135 -51 -166 -56 -211 -35 -47 22 -65 65 -71 169 -6 94 6 135 39
135 36 0 83 34 119 86 39 58 99 190 99 221 0 28 -36 53 -77 53 l-33 0 0 115
c0 66 -7 149 -16 193 -47 232 -206 458 -381 544 -67 32 -70 33 -203 33 -122 0
-143 -3 -220 -29 -95 -32 -264 -115 -357 -176 -100 -66 -149 -166 -162 -329
-8 -95 2 -271 20 -362 10 -52 10 -64 -6 -92 -16 -31 -16 -37 -1 -97 21 -80 68
-163 112 -196 19 -15 34 -30 34 -35 0 -20 -68 -42 -144 -46 -163 -10 -322 54
-372 149 -17 32 -34 179 -34 294 0 77 1 82 31 110 58 55 75 100 118 309 49
243 95 413 154 572 59 157 80 260 112 546 30 269 28 336 -21 636 -13 85 -33
218 -44 295 -27 192 -39 252 -130 626 -43 179 -85 366 -95 415 -10 57 -37 141
-74 230 -32 77 -64 165 -70 195 -6 30 -18 154 -26 275 -24 327 -52 471 -168
850 -58 189 -62 206 -62 302 0 69 4 106 13 115 21 21 14 135 -17 258 -39 153
-185 580 -223 651 -104 196 -342 369 -628 454 -207 61 -269 98 -471 280 -67
61 -143 124 -169 142 -81 55 -82 95 -2 252 55 109 57 117 61 203 7 185 -35
463 -91 596 -17 41 -55 110 -85 155 -62 94 -60 88 -67 225 -6 120 -27 175
-100 271 -107 139 -284 259 -492 334 -189 68 -366 49 -512 -56 -32 -23 -80
-53 -107 -67 -79 -39 -186 -151 -228 -240 -90 -190 -104 -406 -68 -992 12
-185 24 -410 28 -501 6 -161 6 -165 -19 -219 -36 -77 -145 -189 -280 -285
-168 -120 -232 -192 -338 -383 -30 -52 -63 -108 -75 -125 -52 -70 -95 -296
-95 -493 0 -146 -16 -233 -72 -386 -90 -248 -207 -600 -247 -746 -24 -85 -54
-176 -66 -201 -38 -75 -138 -217 -227 -325 -131 -158 -202 -271 -346 -559 -56
-113 -95 -209 -132 -325 -72 -228 -112 -323 -310 -730 -216 -446 -242 -504
-323 -725 -84 -228 -107 -314 -107 -392 0 -74 15 -113 44 -113 15 -1 35 -21
66 -67 24 -37 100 -124 167 -194 68 -70 123 -130 123 -132 0 -16 -47 -150 -80
-230 -21 -52 -51 -136 -65 -187 -39 -139 -88 -230 -125 -230 -20 0 -201 132
-271 197 -53 50 -60 73 -33 125 31 60 0 94 -201 228 -60 41 -141 100 -180 132
-38 33 -102 75 -141 94 -94 47 -158 52 -291 25 -118 -24 -279 -28 -307 -8 -18
13 -17 15 9 35 15 12 45 27 67 34 22 6 44 21 50 31 13 25 4 132 -18 207 -9 30
-18 72 -21 92 -6 48 23 128 47 128 26 0 32 12 84 150 65 174 60 230 -20 230
-20 0 -34 5 -34 13 -3 108 -23 276 -41 332 -79 256 -272 459 -514 541 -104 35
-266 44 -369 20 -115 -27 -218 -88 -321 -191 -98 -97 -141 -157 -216 -299 -96
-185 -153 -370 -210 -681 -71 -387 -83 -422 -204 -555 l-76 -85 62 -7 c34 -4
64 -9 66 -12 17 -17 -186 -116 -239 -116 -10 0 -18 -4 -18 -10 0 -14 95 -40
170 -47 96 -9 102 -17 26 -38 -36 -10 -63 -22 -60 -26 3 -5 28 -9 56 -9 l51 0
-55 -58 c-130 -136 -176 -312 -194 -738 -7 -184 -4 -209 32 -200 20 5 26 2 35
-21 22 -57 3 -128 -87 -317 -47 -100 -97 -215 -110 -256 -25 -79 -52 -294 -99
-770 -26 -276 -39 -332 -120 -549 -54 -144 -95 -298 -95 -356 0 -39 11 -57
127 -215 70 -94 135 -176 145 -181 13 -7 21 -2 38 21 l22 31 33 -21 c43 -26
83 -22 112 11 36 42 45 75 29 112 -15 36 -99 119 -164 162 -72 47 -67 87 22
184 59 64 66 82 84 220 8 56 24 110 48 165 20 44 74 189 119 322 46 132 98
274 118 315 39 84 84 220 117 357 12 51 31 103 41 115 18 22 18 20 21 -88 5
-201 5 -205 -34 -300 -20 -50 -41 -115 -46 -145 -6 -30 -24 -84 -41 -120 -39
-81 -39 -126 -5 -256 40 -151 40 -145 1 -196 -47 -61 -56 -115 -28 -168 28
-54 27 -147 -5 -298 -3 -13 -34 -53 -71 -88 l-66 -65 6 -47 c3 -26 20 -91 36
-146 17 -54 35 -126 40 -160 18 -120 22 -427 9 -636 -7 -113 -13 -259 -12
-325 1 -111 4 -129 37 -229 49 -145 59 -208 46 -309 -5 -45 -12 -89 -15 -96
-3 -8 -9 -84 -14 -169 -13 -209 -73 -691 -112 -890 -17 -89 -33 -160 -35 -158
-5 4 23 475 42 696 7 91 11 167 9 169 -12 13 -21 -26 -94 -449 l-48 -275 -1
118 c-1 112 -12 151 -24 88 -10 -48 -36 -317 -43 -446 l-7 -120 -15 57 c-8 32
-19 58 -24 58 -6 0 -8 -6 -5 -13 3 -8 8 -59 12 -115 6 -80 4 -115 -10 -172
-10 -39 -19 -70 -20 -68 -2 2 -9 87 -16 191 -17 262 -36 248 -48 -38 l-6 -160
-27 135 -27 135 20 164 c25 210 14 232 -33 64 -12 -46 -26 -83 -30 -83 -5 0
-8 5 -8 10 0 6 -4 10 -8 10 -5 0 -7 -24 -4 -53 3 -35 -6 -98 -28 -197 -17 -80
-33 -146 -34 -148 -2 -2 -7 19 -10 45 -23 156 -78 308 -62 171 19 -172 27
-331 16 -338 -6 -4 -8 -15 -4 -26 4 -10 -8 1 -26 26 -18 25 -45 59 -60 75 -18
20 -35 61 -53 125 -25 92 -26 102 -21 305 3 151 2 203 -6 186 -17 -40 -58
-257 -76 -408 -10 -79 -20 -143 -24 -143 -3 0 -5 -28 -3 -63 l3 -62 -24 63
c-29 77 -36 85 -36 42 l0 -34 -35 34 c-19 18 -37 31 -40 28 -3 -3 16 -59 41
-124 70 -178 69 -171 25 -178 -74 -12 -68 -24 -76 164 -4 94 -11 170 -16 170
-5 0 -9 -7 -9 -17 0 -9 -2 -14 -5 -11 -6 5 9 445 21 631 8 120 -6 127 -40 20
-39 -126 -116 -551 -116 -645 0 -16 -5 -28 -10 -28 -16 0 -30 46 -30 98 0 151
-66 542 -92 542 -4 0 -9 -114 -9 -252 -1 -139 -5 -266 -9 -283 l-8 -30 -2 35
c-5 65 -18 -67 -19 -192 -1 -134 -21 -209 -48 -186 -14 11 -15 67 -9 443 3
236 9 447 12 467 4 23 2 38 -4 38 -8 0 -34 -119 -85 -400 -17 -89 -17 -88 -47
140 -11 91 -25 181 -31 200 -5 19 -18 78 -29 130 -32 147 -81 320 -92 320 -6
0 -7 -16 -4 -37 12 -67 24 -376 18 -463 -4 -74 -10 -96 -48 -175 -75 -156
-139 -380 -181 -636 -12 -70 -19 -96 -25 -83 -6 16 -58 367 -58 395 0 5 -4 9
-10 9 -6 0 -10 -53 -10 -137 0 -158 -5 -173 -44 -148 -30 20 -32 15 -11 -25
14 -27 14 -32 -5 -62 -11 -18 -20 -27 -20 -20 0 25 -61 507 -65 510 -12 12
-20 -98 -20 -270 l0 -198 -27 113 c-32 131 -76 257 -90 257 -5 0 -7 -8 -4 -17
15 -50 94 -673 84 -663 -9 9 -77 290 -92 380 -8 47 -20 131 -27 187 -7 57 -16
103 -21 103 -4 0 -8 -51 -9 -112 l0 -113 -33 105 c-19 58 -51 147 -71 197 -38
96 -63 124 -50 56 4 -21 7 -45 7 -53 0 -8 3 -24 8 -35 5 -11 13 -46 18 -77 7
-47 5 -68 -9 -112 -11 -31 -24 -98 -31 -150 l-12 -96 -29 28 -29 27 7 -25 c4
-14 10 -30 12 -36 2 -6 -7 -19 -21 -28 -15 -9 -26 -14 -26 -12 0 2 22 94 49
203 62 251 65 263 53 263 -5 0 -39 -79 -77 -175 -37 -96 -70 -175 -73 -175 -2
0 -1 16 2 35 4 22 3 35 -4 35 -5 0 -10 -1 -10 -2 0 -24 -53 -265 -61 -277 -8
-12 -9 -9 -6 17 6 51 -11 37 -23 -20 -9 -42 -23 -66 -64 -111 l-53 -59 -12 44
c-9 35 -8 72 7 198 11 85 17 157 15 160 -2 2 -9 -2 -14 -10 -8 -11 -9 -4 -4
23 3 22 2 44 -4 51 -7 9 0 45 24 126 20 62 33 115 31 117 -8 8 -57 -66 -111
-168 l-56 -104 6 68 c3 37 8 96 11 132 3 40 2 65 -4 65 -11 0 -17 -24 -68
-280 -31 -158 -69 -288 -81 -276 -3 2 -9 23 -14 46 -8 35 -3 71 31 218 44 190
194 786 205 815 4 9 3 17 -3 17 -16 0 -160 -352 -318 -780 -4 -11 -9 -8 -20
13 -13 24 -13 49 1 205 15 173 41 384 52 429 3 13 1 23 -5 23 -17 0 -113 -336
-149 -520 -9 -42 -10 -38 -16 55 -3 55 -14 136 -23 180 -10 44 -17 96 -17 115
-1 61 173 669 247 869 35 94 38 125 10 86 -29 -38 -240 -471 -302 -616 -34
-81 -89 -218 -122 -305 -32 -88 -59 -152 -59 -144 0 8 6 78 14 155 17 167 18
175 6 175 -5 0 -15 -26 -21 -57 -36 -179 -164 -649 -181 -667 -5 -6 -9 12 -10
45 -1 46 -14 115 -18 99 -1 -3 -8 -79 -15 -170 -10 -129 -19 -184 -42 -252
-15 -49 -31 -88 -34 -88 -3 0 -14 18 -26 39 l-21 39 54 208 c29 115 89 341
133 501 44 161 80 295 80 298 0 40 -107 -155 -176 -320 -20 -49 -61 -157 -90
-240 -29 -82 -53 -147 -53 -142 -1 4 12 94 29 200 52 338 76 657 52 695 -5 7
-52 -165 -117 -425 -59 -241 -116 -463 -125 -493 -9 -30 -23 -81 -30 -112 -13
-56 -30 -78 -30 -39 0 11 -4 22 -9 25 -5 4 -12 -42 -16 -102 -5 -67 -16 -136
-32 -184 -13 -43 -25 -78 -27 -78 -2 0 -2 45 1 100 4 66 2 100 -5 100 -9 0
-23 -62 -37 -179 -7 -52 -8 -53 -26 -35 -18 19 -18 25 7 249 13 127 36 289 49
360 43 226 73 428 85 559 11 114 9 149 -5 135 -2 -3 -27 -92 -55 -199 -28
-107 -80 -305 -117 -440 l-67 -244 -14 49 c-25 95 -74 240 -94 279 -19 38 -20
48 -9 220 14 226 14 453 1 461 -5 3 -10 1 -10 -5 0 -37 -165 -967 -216 -1218
-6 -30 -9 -33 -33 -27 -14 4 -30 10 -35 15 -4 4 -1 103 8 222 16 208 31 603
22 583 -3 -5 -28 -122 -56 -260 -28 -137 -55 -266 -60 -285 l-10 -35 5 42 c3
23 12 99 20 170 16 137 20 393 7 393 -5 0 -29 -82 -53 -182 -24 -100 -45 -175
-47 -167 -2 9 4 112 12 230 8 117 13 215 11 218 -12 11 -20 -27 -65 -296 -56
-334 -56 -336 -65 -428 -4 -38 -11 -77 -16 -85 -6 -10 -7 -6 -3 12 7 32 -11
39 -19 8 -5 -19 -7 -19 -51 -4 -53 18 -52 16 -35 159 9 73 92 375 185 668 3 9
1 17 -4 17 -13 0 -104 -157 -169 -291 l-56 -117 -32 126 c-18 70 -39 143 -48
162 -14 32 -15 -346 -16 -3902 l-1 -3938 16665 0 16665 0 0 3305 c0 1818 -2
3305 -4 3305 -3 0 -17 -38 -32 -85 -16 -46 -30 -83 -31 -81 -2 2 12 74 32 160
34 152 35 160 34 363 l0 208 -20 -45 c-29 -65 -143 -400 -195 -573 -41 -137
-73 -222 -60 -157 3 14 14 90 25 170 48 343 51 610 11 811 l-22 107 32 118
c61 230 131 470 181 621 70 210 62 232 -24 71 -115 -215 -299 -636 -383 -875
-10 -29 -19 -51 -22 -49 -2 2 4 77 13 166 14 146 14 183 1 169 -3 -3 -17 -59
-31 -124 -47 -218 -140 -547 -262 -920 -30 -93 -59 -174 -63 -178 -4 -4 -13
18 -19 51 -13 57 -12 62 58 333 38 151 104 398 145 549 42 150 73 276 71 279
-25 25 -258 -503 -306 -693 -21 -85 -19 -42 6 105 57 333 87 678 68 764 l-9
40 -13 -55 c-111 -471 -275 -1104 -295 -1135 -7 -11 -18 -48 -25 -82 -17 -89
-41 -166 -49 -158 -4 4 -12 23 -18 43 -9 33 -6 47 23 122 36 93 38 100 23 100
-6 0 -28 -27 -49 -60 -20 -33 -41 -57 -44 -53 -4 3 -7 -1 -7 -11 0 -9 -10 -36
-22 -59 -63 -119 -4 144 107 477 65 197 80 255 61 235 -3 -2 -18 -33 -35 -69
-17 -36 -31 -61 -31 -56 0 4 11 74 24 155 39 234 63 471 48 471 -5 0 -37 -107
-71 -237 -34 -131 -87 -330 -119 -443 l-57 -205 -7 111 c-5 62 -12 122 -17
135 -7 21 -9 16 -16 -30 l-7 -54 -36 89 c-41 103 -42 116 -28 474 8 185 4 302
-9 289 -2 -2 -17 -89 -34 -194 -34 -207 -85 -498 -102 -584 l-11 -54 -32 59
c-17 33 -41 74 -54 91 -20 28 -22 44 -23 150 l-1 118 -39 -194 c-23 -118 -44
-201 -54 -210 -14 -14 -15 -11 -10 29 27 211 31 252 23 256 -4 3 -8 32 -8 65
0 32 -4 59 -8 59 -8 0 -43 -122 -58 -200 -3 -14 -25 -109 -50 -211 -35 -143
-54 -204 -85 -260 -23 -44 -37 -62 -33 -44 6 24 73 264 101 358 3 9 1 17 -4
17 -6 0 -29 -39 -51 -88 -49 -106 -52 -89 -18 103 13 72 20 132 15 133 -19 7
-10 166 15 248 13 43 22 81 20 83 -6 6 -30 -28 -87 -123 l-48 -81 6 45 c4 25
9 60 12 78 3 18 1 32 -5 32 -9 0 -46 -123 -88 -294 l-17 -70 -27 110 c-15 60
-44 152 -64 205 -20 53 -36 104 -36 112 0 18 46 270 56 305 4 12 2 22 -4 22
-10 0 -54 -104 -82 -195 -17 -55 -21 -60 -32 -41 -17 30 -25 16 -17 -32 7 -42
-7 -140 -18 -128 -2 2 -12 44 -23 92 -10 49 -23 100 -28 114 -10 24 -11 24
-13 -10 -1 -19 -3 -69 -4 -110 -1 -41 -3 -91 -4 -111 -1 -28 -7 -38 -26 -47
-35 -16 -37 -15 -30 8 11 36 -12 21 -28 -17 -30 -74 -18 5 33 214 56 232 53
213 41 213 -4 0 -23 -39 -42 -87 l-34 -88 -5 60 -5 60 -22 -80 c-12 -44 -25
-99 -29 -122 -4 -24 -9 -43 -13 -43 -3 0 -23 29 -44 65 -21 36 -60 92 -87 124
-32 38 -48 66 -44 75 14 35 -13 12 -48 -42 l-38 -57 0 85 c-1 110 -14 86 -28
-52 -8 -77 -19 -122 -35 -155 -15 -28 -27 -42 -31 -35 -15 25 -26 11 -20 -26
5 -30 0 -50 -19 -88 l-25 -49 -6 40 c-4 22 -12 57 -18 78 -10 34 -6 65 41 270
30 128 96 401 148 607 52 206 97 385 100 398 3 12 1 22 -5 22 -12 0 -156 -385
-287 -765 -51 -148 -97 -283 -103 -300 -8 -23 -11 10 -11 148 -1 99 -5 177
-10 177 -5 0 -12 -17 -15 -37 -8 -54 -34 -266 -42 -348 -4 -39 -18 -95 -31
-125 l-25 -55 -30 115 c-16 63 -32 126 -35 140 -3 20 80 319 113 404 5 13 3
17 -5 15 -14 -5 -52 -73 -116 -209 l-45 -95 2 268 c2 147 0 267 -3 267 -19 0
-99 -463 -99 -572 0 -60 -15 -36 -31 52 l-14 75 -5 -240 c-5 -208 -8 -247 -25
-290 l-20 -50 -3 268 c-1 147 -6 267 -11 267 -8 0 -19 -38 -37 -130 -4 -19
-12 -89 -18 -155 l-12 -120 -13 130 -14 131 47 223 c43 202 48 247 30 228 -4
-3 -30 -68 -59 -143 -40 -104 -54 -131 -60 -115 -13 43 -25 19 -25 -51 0 -52
-9 -106 -32 -190 -18 -65 -36 -118 -39 -118 -12 0 -39 68 -39 98 0 16 -7 67
-16 112 -8 45 -12 95 -9 111 10 44 -13 36 -24 -8 -5 -21 -26 -110 -46 -198
-42 -184 -46 -197 -52 -174 -4 16 72 380 151 722 52 224 49 207 37 207 -25 0
-140 -267 -221 -515 l-43 -130 -13 35 c-9 26 -11 91 -7 255 5 193 0 325 -13
313 -2 -2 -22 -101 -44 -219 -74 -388 -182 -894 -192 -904 -7 -7 -8 28 -2 110
5 66 7 167 6 225 -4 118 34 340 109 649 35 147 41 186 24 169 -3 -3 -43 -106
-90 -229 l-84 -224 6 190 c3 105 10 198 14 207 12 22 11 31 -1 23 -6 -4 -10
34 -10 107 0 109 -23 395 -33 404 -2 2 -10 -59 -17 -136 -7 -78 -25 -215 -40
-304 l-27 -164 -67 -88 c-68 -92 -182 -304 -232 -433 l-29 -75 -7 35 c-4 19
-12 60 -18 92 -6 31 -14 57 -18 57 -4 0 -8 -47 -9 -106 -1 -107 -35 -274 -56
-274 -5 0 -7 -6 -4 -13 2 -7 -5 -32 -18 -57 l-22 -44 -7 220 c-14 499 -19 615
-23 611 -7 -7 -42 -399 -49 -555 -5 -104 -11 -148 -21 -158 -10 -9 -24 -82
-40 -202 -14 -103 -27 -197 -29 -208 -4 -20 -31 -40 -41 -30 -3 2 0 163 5 358
6 194 8 355 6 357 -2 2 -7 2 -10 -2 -10 -10 -42 -216 -66 -424 -12 -112 -25
-203 -28 -203 -3 1 -22 38 -42 83 -36 80 -38 87 -47 252 -6 94 -9 191 -9 216
2 56 -13 86 -23 49 -4 -14 -7 -43 -8 -64 -1 -52 -62 -236 -77 -236 -9 0 -11
-11 -8 -33 3 -17 -2 -52 -9 -76 l-14 -45 -6 85 c-4 46 -10 175 -13 286 -4 112
-11 203 -15 203 -12 0 -28 -87 -39 -220 -6 -69 -14 -154 -17 -190 l-6 -65 -14
90 c-13 90 -58 283 -68 293 -14 14 -14 -20 0 -219 18 -256 18 -352 1 -399 -12
-34 -13 -32 -24 70 -21 181 -31 300 -38 455 -8 159 -15 155 -29 -15 -4 -47
-10 -89 -13 -94 -4 -8 -52 169 -50 184 1 3 -2 12 -5 20 -4 8 -20 59 -37 113
-17 53 -36 97 -42 97 -6 0 -8 -11 -5 -29 4 -17 12 -79 18 -140 l12 -109 -31
-94 c-17 -52 -38 -135 -46 -184 -9 -49 -32 -156 -53 -239 l-37 -150 -13 115
c-19 183 -26 202 -34 95 -4 -49 -8 -148 -9 -220 -3 -176 -14 -211 -23 -68 -7
117 -29 242 -53 303 -14 34 -13 51 11 206 25 158 58 336 71 377 3 9 1 17 -5
17 -18 0 -116 -282 -175 -505 l-34 -130 -1 88 c-1 51 -5 87 -11 87 -5 0 -10
-6 -10 -14 0 -70 -36 -279 -63 -361 l-32 -100 -3 71 c-2 41 8 138 22 230 33
209 24 220 -36 44 l-32 -95 -12 50 c-7 28 -13 78 -13 111 -1 42 -18 121 -55
250 -68 239 -91 346 -116 537 -38 303 -51 529 -53 962 -2 383 0 423 16 453 9
17 23 44 31 60 25 46 37 176 43 473 7 325 3 367 -59 623 -28 118 -39 182 -35
213 5 47 30 83 57 83 29 0 24 125 -12 270 -30 119 -32 136 -33 335 -1 116 -5
238 -9 272 -9 65 -8 66 47 106 16 11 17 17 7 38 -17 38 16 97 101 181 38 37
76 84 85 105 19 43 37 218 38 368 0 72 -5 119 -19 169 l-20 68 23 15 c19 13
22 24 22 79 0 60 15 94 40 94 5 0 52 -29 104 -64 165 -113 360 -199 581 -256
346 -89 453 -53 487 165 13 87 -3 366 -28 490 -29 143 -141 448 -250 685 l-49
105 1 105 c1 125 14 194 61 315 31 80 35 98 31 165 -7 159 -131 303 -261 304
-46 0 -95 -24 -104 -51 -3 -7 21 -28 52 -47 93 -60 125 -143 88 -227 -35 -78
-101 -146 -287 -296 -43 -35 15 -239 100 -351 43 -55 59 -193 44 -356 -6 -71
-15 -139 -19 -150 -8 -21 -13 -15 -168 214 -54 79 -62 86 -111 103 -30 9 -107
21 -171 25 -101 7 -126 13 -186 40 -37 18 -93 50 -124 71 -86 58 -114 64 -259
57 -111 -6 -131 -5 -162 11 -33 17 -35 22 -41 78 -10 96 -7 102 59 107 86 6
105 24 168 157 45 95 68 128 121 182 63 65 65 68 73 135 5 38 14 231 21 428
12 399 9 436 -43 541 -64 127 -224 241 -393 280 -38 10 -96 30 -128 47 -110
56 -194 80 -307 85 -133 7 -197 -6 -308 -62 -182 -92 -352 -298 -411 -500 -21
-73 -64 -296 -77 -400 -3 -33 -14 -71 -24 -85 -9 -14 -25 -49 -35 -78 -15 -48
-77 -148 -137 -224 -30 -38 -14 -48 22 -13 17 16 30 25 30 21 0 -13 -42 -90
-66 -123 -46 -61 -15 -64 49 -4 l29 26 -17 -40 c-9 -22 -23 -51 -31 -63 -20
-30 -14 -36 20 -21 35 16 61 60 96 165 32 95 41 109 79 128 64 33 68 32 74
-31 16 -144 104 -301 217 -387 87 -64 97 -86 79 -166 -8 -35 -18 -69 -24 -77
-17 -22 -77 -31 -141 -21 -34 6 -168 8 -311 5 -234 -5 -255 -7 -286 -26 -44
-27 -114 -103 -152 -164 -37 -60 -139 -128 -202 -135 -58 -6 -83 -38 -83 -102
l0 -48 -97 -70 c-54 -39 -150 -111 -213 -161 -68 -53 -124 -91 -138 -91 -39 0
-74 25 -148 107 -68 75 -251 225 -393 323 -70 48 -111 108 -111 163 0 15 16
67 37 115 29 71 37 103 41 173 5 100 -6 146 -75 313 -86 209 -108 348 -123
772 -9 254 -13 295 -37 387 l-26 102 -7 690 c-5 420 -12 721 -19 770 -28 190
-74 373 -145 565 -10 27 10 42 64 48 49 6 54 10 62 37 11 38 1 153 -18 225
-22 77 -71 161 -152 258 -73 88 -112 157 -130 233 -13 53 -34 486 -31 644 1
65 -2 121 -9 138 -7 15 -33 46 -59 70 -148 133 -164 159 -183 315 -6 46 -22
115 -37 155 -54 150 -207 463 -303 622 -20 33 -60 105 -90 160 -68 127 -109
192 -181 285 -118 152 -222 202 -463 221 -184 14 -258 38 -376 119 -60 41
-153 68 -253 75 -178 13 -177 12 -177 140 0 51 -3 100 -6 109 -3 9 -23 26 -44
37 -60 34 -74 70 -67 170 10 125 42 326 55 342 7 7 29 19 50 25 21 6 47 24 59
40 67 90 169 361 180 475 5 57 3 67 -16 86 -22 22 -55 27 -93 12 l-24 -9 15
66 c23 100 22 465 -1 549 -54 196 -186 351 -383 448 -158 78 -324 108 -515 93z
m-8685 -5731 c9 -48 32 -138 53 -200 34 -103 37 -121 36 -222 0 -126 -25 -245
-99 -476 -34 -104 -51 -184 -70 -316 -24 -172 -27 -182 -76 -281 -40 -79 -62
-145 -99 -290 -26 -103 -60 -225 -75 -272 -15 -48 -52 -236 -85 -437 -47 -280
-64 -363 -85 -408 -32 -66 -30 -116 5 -165 21 -29 22 -40 25 -378 5 -522 16
-675 100 -1477 61 -578 64 -607 75 -805 13 -211 34 -322 105 -540 60 -186 90
-298 111 -415 25 -139 44 -336 44 -457 l0 -118 -35 -39 c-26 -29 -35 -47 -35
-74 0 -19 -14 -88 -31 -153 -62 -239 -61 -235 -55 -329 6 -99 18 -168 47 -264
25 -82 24 -102 -6 -202 -95 -317 -95 -319 -161 -764 -85 -583 -130 -863 -154
-960 -24 -96 -26 -234 -5 -321 8 -33 33 -95 55 -137 38 -70 41 -82 37 -135 -2
-38 -17 -86 -42 -142 -37 -82 -38 -85 -27 -140 7 -31 11 -85 11 -121 l-2 -64
-10 48 c-6 26 -14 47 -18 47 -3 0 -10 -34 -14 -75 -4 -41 -11 -75 -16 -75 -5
0 -3 -11 3 -25 8 -19 8 -35 -2 -67 -11 -38 -13 -40 -21 -22 -4 12 -38 175 -75
363 -37 187 -72 341 -77 341 -9 0 -7 -39 24 -355 10 -110 21 -218 23 -240 2
-22 1 -31 -3 -20 -3 11 -8 -50 -11 -135 -5 -147 -6 -155 -25 -155 -18 0 -22
16 -47 175 -14 96 -32 214 -38 263 -7 48 -16 87 -21 87 -12 0 -11 -197 1 -394
6 -90 7 -163 2 -168 -5 -5 -27 14 -49 45 -38 49 -44 69 -89 255 -27 111 -52
202 -57 202 -5 0 -8 -26 -6 -57 1 -32 1 -100 1 -151 -2 -88 -3 -93 -22 -87
-24 7 -26 -7 -5 -25 10 -8 15 -31 15 -70 0 -147 -21 -84 -111 340 l-33 155
-12 -60 c-7 -33 -22 -82 -34 -110 l-22 -50 -25 50 c-29 57 -31 60 -38 54 -2
-3 5 -38 15 -79 23 -87 24 -123 6 -165 -14 -33 -14 -33 -57 173 -12 59 -32 71
-25 15 3 -21 8 -72 10 -113 l6 -75 -30 75 c-35 86 -123 266 -144 295 -22 31
-28 13 -11 -36 19 -53 55 -179 51 -179 -1 0 -19 24 -39 53 -41 59 -114 132
-104 104 4 -10 23 -70 43 -134 l37 -116 -24 -46 c-12 -25 -35 -73 -51 -106
-31 -68 -32 -63 -18 54 11 84 8 108 -11 81 -8 -11 -9 -10 -4 8 9 32 -6 27 -65
-19 l-51 -41 5 69 c20 233 31 461 21 451 -6 -6 -85 -394 -105 -515 -13 -78
-25 -102 -16 -30 22 158 58 406 63 425 3 12 1 22 -6 22 -13 0 -99 -267 -137
-425 l-29 -120 -3 63 c-2 34 -7 62 -11 62 -5 0 -14 -48 -20 -107 -21 -189 -52
-366 -74 -425 -24 -63 -35 -74 -30 -31 30 269 65 552 69 566 3 9 1 17 -5 17
-12 0 -44 -85 -61 -163 -7 -31 -15 -56 -17 -54 -3 4 52 502 62 565 17 94 -43
-24 -91 -183 -10 -33 -21 -62 -25 -65 -3 -3 -11 -30 -17 -60 -8 -46 -82 -372
-111 -490 -7 -27 -8 -18 -5 35 2 39 9 180 14 315 17 397 52 939 65 998 3 12 1
22 -3 22 -24 0 -180 -803 -223 -1142 -17 -132 -32 -107 -48 78 -13 153 -20
192 -31 174 -4 -6 -12 22 -19 62 -25 146 -73 312 -113 391 -18 37 -18 44 -3
225 30 354 79 754 101 825 3 9 1 17 -4 17 -9 0 -70 -179 -121 -355 -41 -140
-111 -444 -146 -630 -19 -104 -37 -194 -38 -199 -2 -5 -9 67 -16 160 -20 254
-26 275 -35 109 -8 -157 -26 -408 -29 -411 -1 -1 -22 16 -46 37 l-44 40 16
187 c20 233 16 245 -33 100 -15 -46 -38 -127 -51 -181 -23 -98 -23 -98 -36
-65 -10 30 -12 22 -12 -72 0 -58 -7 -143 -16 -190 -8 -47 -15 -98 -16 -115 0
-26 -2 -27 -9 -10 -5 11 -9 90 -9 175 -2 261 -32 583 -65 677 l-13 38 -6 -30
c-3 -16 -9 -95 -12 -175 -6 -125 -24 -252 -38 -266 -2 -3 -7 19 -11 48 -4 29
-29 166 -56 303 -41 214 -51 285 -64 490 -39 595 -44 886 -17 958 6 15 22 32
35 37 51 19 57 44 72 282 18 291 37 452 85 738 67 389 64 562 -14 735 -27 61
-32 86 -38 195 -4 69 -15 159 -23 200 -22 103 -20 132 10 191 21 40 29 73 37
169 10 110 9 126 -13 227 -35 161 -36 183 -6 278 23 74 28 116 41 357 22 389
61 734 98 858 12 44 60 90 93 90 7 0 35 -29 63 -65 44 -55 55 -64 75 -59 31 7
59 -8 186 -101 118 -87 177 -119 324 -176 208 -82 410 -118 473 -85 107 55
193 322 275 846 19 125 22 180 21 395 -1 141 -7 272 -13 300 -6 28 -15 99 -21
160 -11 129 -23 152 -76 157 -52 4 -54 31 -8 129 45 96 46 126 10 180 -41 58
-39 115 9 205 51 98 88 144 394 498 557 643 686 810 805 1042 70 137 124 276
178 454 26 83 90 243 166 415 128 285 151 350 175 491 8 51 14 68 16 49 2 -16
9 -70 17 -118z m10648 -174 c-10 -57 -10 -57 -11 42 0 88 2 95 10 58 7 -28 7
-61 1 -100z m-3267 -244 c6 -51 4 -62 -25 -112 -31 -54 -31 -55 -31 -199 0
-157 -15 -265 -56 -412 -72 -256 -104 -472 -104 -705 0 -164 -5 -198 -57 -376
-49 -170 -49 -209 6 -325 43 -89 45 -98 53 -219 4 -69 10 -152 14 -183 6 -54
5 -60 -25 -93 -17 -19 -34 -47 -37 -62 -11 -44 3 -332 35 -688 48 -534 48
-535 172 -797 116 -246 136 -333 164 -728 26 -364 69 -759 126 -1145 l31 -210
-8 -470 c-10 -649 -12 -596 25 -691 39 -100 118 -235 170 -289 53 -55 57 -66
70 -175 7 -52 18 -131 26 -175 19 -105 32 -252 50 -570 24 -405 42 -551 96
-774 47 -195 51 -232 34 -373 -21 -177 -19 -276 6 -350 l20 -61 -37 -111 c-20
-61 -56 -187 -80 -281 l-43 -170 -1 70 c-1 120 -16 106 -29 -27 -13 -133 -70
-481 -101 -618 -19 -84 -19 -84 -15 -25 19 251 30 356 53 543 15 116 25 212
21 212 -14 0 -64 -156 -92 -290 l-14 -65 -6 195 c-3 107 -10 209 -15 225 l-9
30 -6 -25 c-3 -14 -18 -142 -33 -284 -15 -143 -30 -271 -34 -285 l-7 -26 -6
25 c-3 14 -11 83 -17 154 -6 71 -18 148 -26 170 -7 23 -14 69 -14 104 0 34 -4
62 -9 62 -4 0 -13 -42 -20 -92 -36 -296 -45 -357 -53 -352 -4 3 -8 16 -8 29 0
13 -3 25 -7 27 -5 2 -22 26 -39 54 -29 47 -33 64 -43 184 -7 73 -15 145 -18
161 -13 67 -21 18 -25 -151 -2 -132 -7 -183 -16 -189 -7 -4 -21 -29 -31 -56
l-18 -48 -6 54 c-3 30 -9 83 -13 119 l-8 65 -7 -45 c-4 -25 -8 -79 -10 -120
l-2 -75 -13 115 c-7 63 -13 118 -13 123 -1 4 -5 7 -10 7 -5 0 -12 -43 -16 -95
-4 -52 -10 -95 -14 -95 -3 0 -16 16 -29 35 -12 19 -27 35 -32 35 -13 0 -13 -2
5 -65 16 -53 16 -54 -14 -110 -29 -53 -31 -55 -37 -31 -3 15 -4 39 0 54 3 15
8 51 11 81 3 29 10 61 15 71 5 9 7 20 4 23 -3 2 1 41 9 86 8 44 11 81 6 81 -4
0 -21 -35 -37 -77 -42 -111 -43 -112 -38 -70 6 46 -8 49 -21 5 l-9 -33 -26 57
c-30 64 -85 148 -97 148 -5 0 0 -30 10 -66 l18 -67 -24 -41 c-15 -24 -25 -34
-25 -23 0 34 -19 16 -39 -38 -12 -31 -21 -60 -21 -65 0 -6 -4 -10 -10 -10 -20
0 -9 45 25 108 20 35 34 67 31 70 -3 2 -17 -3 -32 -13 l-26 -17 5 29 c3 15 9
62 12 103 4 41 9 83 11 93 3 9 1 17 -4 17 -6 0 -18 -36 -28 -80 -9 -44 -19
-78 -21 -76 -5 4 21 284 33 359 3 20 2 37 -3 37 -11 0 -21 -39 -74 -300 -23
-107 -42 -202 -44 -210 -2 -8 -4 -28 -4 -45 l-1 -30 -13 25 c-7 14 -21 37 -31
52 -15 23 -16 35 -6 90 5 34 13 78 16 96 7 44 -10 41 -29 -6 -11 -25 -16 -30
-17 -17 -1 34 -17 -3 -55 -132 -27 -90 -34 -106 -30 -68 3 28 10 106 15 175
14 164 48 506 55 548 11 61 -13 32 -29 -35 -38 -169 -93 -446 -102 -515 -4
-30 -12 -48 -20 -48 -7 0 -19 -21 -27 -47 -14 -48 -14 -48 -11 52 3 84 2 95
-8 68 l-11 -33 -14 26 c-11 23 -11 40 2 116 9 50 14 93 11 96 -9 8 -11 3 -37
-76 l-24 -73 -24 31 c-17 24 -25 52 -31 118 -5 48 -13 99 -19 114 -6 15 -37
48 -70 74 -82 63 -108 123 -121 275 -5 63 -14 130 -20 149 -7 23 -9 98 -4 222
l7 186 -32 39 c-27 32 -31 45 -31 96 0 40 -8 77 -26 120 -25 59 -26 69 -21
182 3 66 13 156 23 200 21 92 23 232 11 580 -10 264 -18 306 -85 405 l-43 65
-4 175 c-2 135 0 181 11 202 17 33 19 149 2 166 -7 7 -15 43 -18 80 -8 87 -32
135 -97 199 -64 63 -68 89 -20 137 44 44 64 130 46 200 -14 56 -7 93 25 143
13 21 29 54 35 75 12 37 10 47 -44 188 -14 35 -18 79 -19 191 -1 131 1 149 18
168 11 11 30 21 43 21 16 0 27 7 30 20 6 24 37 28 238 35 211 7 253 20 462
152 197 123 225 194 188 470 -8 60 -24 136 -36 169 -33 88 -119 268 -184 384
l-58 103 -33 196 c-35 210 -46 250 -77 295 -18 26 -19 29 -4 38 71 39 74 241
11 583 -21 112 -25 158 -21 230 7 109 68 407 142 686 72 275 93 372 111 511
12 100 24 143 83 300 134 357 180 561 201 888 15 224 30 280 78 280 40 0 100
41 133 89 52 78 71 146 77 269 4 110 6 116 39 165 34 51 56 120 69 222 l6 50
34 -110 c19 -60 37 -135 40 -166z m-4558 131 c49 -153 94 -370 147 -710 83
-534 151 -793 325 -1245 138 -357 159 -415 193 -535 73 -258 137 -599 137
-733 0 -157 -45 -350 -106 -456 -15 -25 -98 -116 -185 -201 -137 -135 -162
-164 -190 -225 -27 -57 -33 -82 -33 -140 -1 -109 34 -153 110 -139 l34 6 0
-49 c0 -54 23 -98 47 -89 10 4 13 1 9 -12 -53 -172 -73 -598 -32 -696 20 -47
66 -96 196 -209 123 -106 223 -177 308 -216 30 -14 52 -31 52 -40 1 -25 22
-46 59 -59 55 -19 118 -60 139 -90 40 -55 45 -103 33 -302 -15 -233 -47 -527
-67 -605 -12 -46 -15 -97 -11 -225 4 -174 17 -232 76 -348 26 -51 22 -73 -23
-120 -30 -32 -31 -36 -31 -120 1 -98 17 -144 93 -261 23 -35 42 -73 42 -83 0
-10 -11 -45 -25 -77 -20 -48 -27 -93 -40 -252 -9 -107 -28 -261 -42 -344 -17
-106 -27 -213 -33 -365 -8 -238 -15 -279 -102 -621 l-53 -206 18 -84 c10 -51
17 -128 17 -196 0 -78 6 -137 21 -199 29 -124 10 -206 -52 -219 -17 -4 -46
-20 -65 -37 -34 -30 -34 -30 -28 -97 7 -71 -4 -111 -31 -111 -18 0 -18 5 -5
31 13 23 7 24 -27 2 l-26 -17 7 89 c4 50 10 100 13 113 3 12 1 22 -5 22 -5 0
-22 -53 -37 -117 -39 -172 -41 -178 -67 -216 l-23 -35 -36 72 -35 71 16 102
c9 57 13 103 9 103 -4 0 -20 -34 -36 -75 -15 -41 -33 -73 -39 -71 -6 2 -9 -7
-7 -23 2 -14 -10 -73 -26 -131 -16 -58 -30 -95 -30 -82 -1 31 36 449 59 667
18 168 18 197 4 183 -7 -7 -94 -416 -94 -444 0 -11 -3 -24 -7 -28 -5 -4 -8
-15 -8 -24 -2 -57 -18 -143 -26 -131 -4 7 -10 11 -13 8 -3 -2 -27 -87 -53
-187 -39 -148 -51 -182 -65 -182 -10 0 -18 2 -18 5 0 16 54 400 70 500 23 139
23 135 10 135 -12 0 -41 -99 -105 -354 l-51 -208 -28 84 -28 85 13 211 c8 117
11 212 8 212 -11 0 -29 -74 -50 -206 l-22 -131 -28 31 c-15 17 -30 29 -33 26
-3 -3 6 -37 20 -75 25 -67 26 -75 18 -185 l-9 -115 -39 -3 -39 -3 7 143 c7
149 31 484 41 576 9 75 -8 65 -34 -21 -20 -69 -66 -288 -73 -352 -2 -16 -7 40
-11 125 -4 85 -13 180 -20 210 l-14 55 -6 -55 c-3 -30 -13 -174 -22 -320 -18
-299 -24 -360 -36 -360 -12 0 -11 435 1 580 9 106 8 131 -5 118 -3 -2 -13 -41
-22 -86 -10 -45 -20 -82 -24 -82 -3 0 -9 39 -13 87 -4 49 -12 111 -17 138 -27
136 -41 195 -47 195 -4 0 -6 -62 -4 -139 l3 -139 -35 -65 c-19 -36 -47 -105
-62 -154 -16 -48 -30 -90 -31 -92 -2 -3 -27 22 -56 55 -28 32 -89 98 -134 147
-47 50 -87 103 -94 124 -12 37 -11 50 15 308 9 83 29 326 46 540 64 826 96
1164 126 1335 8 47 18 175 21 285 5 172 3 208 -11 260 -22 75 -61 152 -94 188
-29 31 -31 49 -17 198 9 103 -11 211 -56 301 -34 68 -36 99 -9 211 22 93 24
129 15 392 -6 171 -4 195 34 490 22 171 52 425 66 565 39 389 69 551 168 902
30 106 58 220 61 252 9 80 37 140 90 190 37 35 47 53 67 126 18 63 24 108 23
175 -1 80 -6 106 -52 240 -54 161 -87 334 -72 384 13 48 28 68 65 90 33 19 35
23 35 73 0 29 -9 107 -20 173 -11 66 -23 163 -26 215 -6 85 -4 102 15 144 12
27 23 72 26 100 28 288 35 381 37 501 2 131 0 145 -26 215 -51 136 -55 161
-45 246 11 82 1 150 -28 208 -10 18 -13 42 -9 65 4 20 10 64 15 97 6 44 22 88
56 150 54 101 55 106 97 536 12 131 26 234 29 230 4 -4 16 -36 27 -72z m7903
-115 c24 -32 60 -81 79 -109 38 -55 56 -63 142 -65 34 -1 50 -6 56 -18 5 -10
13 -67 16 -128 14 -214 72 -487 241 -1129 195 -742 224 -894 232 -1191 9 -343
-23 -502 -156 -784 -89 -188 -111 -248 -111 -303 0 -63 40 -64 130 -3 49 33
52 34 46 13 -4 -13 -9 -60 -13 -105 -7 -98 8 -133 57 -133 36 0 45 -16 61
-106 15 -90 23 -104 60 -104 24 0 34 -7 51 -36 l21 -37 68 7 c63 6 70 4 99
-21 17 -14 96 -112 174 -217 79 -105 181 -234 228 -286 166 -185 377 -342 497
-369 86 -19 265 33 506 148 156 75 244 126 330 195 79 63 150 104 162 93 10
-10 5 -379 -8 -547 -11 -148 -30 -247 -55 -284 -34 -53 -47 -179 -49 -491 -1
-176 -6 -312 -12 -330 -6 -16 -25 -61 -43 -98 -31 -65 -32 -73 -26 -143 7 -72
6 -75 -24 -113 -36 -45 -62 -122 -54 -160 3 -14 19 -53 36 -87 30 -61 30 -61
13 -98 -12 -25 -38 -50 -85 -80 -80 -52 -105 -95 -95 -162 7 -48 47 -104 74
-104 36 0 40 -18 34 -169 -3 -80 -1 -202 5 -271 6 -69 19 -307 28 -530 l17
-406 -30 -104 c-17 -58 -46 -168 -63 -245 -32 -136 -33 -147 -37 -410 -4 -313
-6 -327 -103 -750 -83 -358 -87 -388 -67 -437 12 -29 23 -39 54 -47 21 -6 52
-11 69 -11 17 0 59 -3 93 -6 l62 -7 -7 -31 c-4 -17 -10 -37 -15 -46 -4 -8 -11
-42 -15 -75 -7 -64 -13 -58 -30 30 -9 52 -12 38 -32 -159 l-17 -161 -46 -3
c-42 -3 -47 -1 -51 20 -3 19 25 227 47 345 16 89 -44 -21 -75 -136 l-12 -45
-26 65 c-44 104 -103 201 -116 188 -3 -2 2 -32 11 -64 l16 -60 -41 -85 c-22
-47 -50 -118 -62 -157 -12 -40 -26 -73 -32 -73 -6 0 -7 31 -3 83 5 66 13 95
41 151 20 37 33 70 31 73 -3 2 -15 -1 -27 -7 -23 -12 -23 -12 -16 56 4 38 9
86 12 107 3 22 2 37 -4 37 -9 0 -30 -78 -63 -230 -6 -30 -23 -71 -36 -92 l-25
-38 -35 73 -35 72 14 100 c21 136 9 142 -33 17 -11 -34 -25 -62 -31 -62 -6 0
-8 -6 -5 -13 3 -7 -10 -64 -28 -127 -19 -63 -34 -108 -34 -100 -1 22 57 659
70 759 9 77 7 103 -7 89 -8 -8 -90 -402 -111 -530 -9 -60 -20 -102 -24 -96 -5
7 -10 10 -14 7 -3 -3 -24 -79 -48 -167 -40 -153 -57 -189 -73 -148 -5 13 36
323 70 534 7 45 10 82 5 82 -11 0 -43 -103 -93 -296 -35 -137 -45 -163 -50
-139 -4 17 -20 71 -36 121 -29 90 -30 95 -21 205 5 63 7 116 5 118 -9 9 -15
-9 -32 -87 l-17 -81 -49 47 -49 46 7 88 c8 101 -5 117 -29 36 -8 -28 -15 -58
-15 -65 0 -38 -85 27 -96 74 -6 23 -8 24 -14 9 -6 -17 -8 -17 -32 5 -15 13
-47 40 -72 59 -25 19 -49 46 -52 60 -3 14 -12 45 -19 70 l-13 45 -1 -55 -1
-54 -22 21 c-17 17 -22 36 -25 90 -2 37 -12 151 -23 253 -10 102 -22 230 -25
285 -8 123 -26 206 -110 522 -37 137 -79 300 -93 363 l-26 115 -2 595 c-1 393
-5 611 -13 642 -29 124 -79 215 -190 346 -120 143 -138 212 -177 667 -13 145
-17 343 -19 835 -5 1185 -36 1495 -230 2340 -58 251 -99 465 -140 729 -21 140
-31 177 -67 255 -22 50 -41 105 -41 122 1 17 30 96 66 176 122 268 132 339
122 888 -8 439 -13 484 -95 810 -51 204 -90 406 -90 463 1 29 3 26 19 -20 9
-28 37 -77 62 -108z m-1542 -5241 c6 -25 29 -132 51 -237 48 -234 102 -424
226 -797 90 -267 100 -306 164 -630 71 -357 117 -555 175 -747 39 -129 77
-362 100 -608 28 -306 86 -664 170 -1045 24 -113 70 -322 101 -465 36 -168 78
-329 119 -455 35 -107 82 -258 106 -335 l42 -140 -7 -180 c-8 -215 -14 -275
-31 -275 -8 0 -15 56 -24 188 -14 218 -20 272 -32 272 -5 0 -9 -38 -9 -85 0
-47 -4 -85 -9 -85 -4 0 -11 41 -13 90 -5 84 -11 110 -22 99 -3 -2 -14 -94 -26
-204 -27 -262 -25 -255 -59 -255 -28 0 -28 1 -40 98 -12 91 -11 108 13 256 32
203 24 221 -30 66 -14 -41 -28 -82 -31 -90 -2 -8 -17 17 -32 56 -28 73 -96
184 -112 184 -5 0 -9 -1 -9 -2 1 -2 9 -32 19 -67 l17 -64 -32 -61 c-17 -33
-39 -82 -49 -107 -14 -38 -20 -46 -37 -41 -17 4 -18 10 -13 46 4 22 23 69 42
104 19 35 33 65 30 68 -2 2 -17 -6 -32 -18 l-28 -22 6 50 c18 151 19 164 8
164 -6 0 -11 -3 -11 -6 0 -3 -14 -65 -30 -137 -20 -84 -40 -146 -56 -170 l-25
-39 -36 74 -35 73 16 95 c20 126 7 137 -30 25 -9 -27 -23 -55 -31 -62 -8 -6
-12 -17 -8 -23 5 -9 1 -31 -21 -99 -4 -13 -7 -13 -18 0 -20 21 -2 178 27 232
21 40 22 54 23 262 0 121 4 230 8 243 5 16 3 22 -7 22 -11 0 -15 37 -21 198
-4 108 -11 233 -16 277 -5 44 -9 146 -9 227 -1 180 -14 252 -85 461 -30 89
-80 262 -110 383 -67 269 -141 514 -206 689 -62 165 -67 192 -75 350 -7 150
-18 185 -89 305 -49 82 -51 87 -51 160 1 66 5 83 35 140 l35 65 1 435 c2 456
13 634 65 990 10 74 19 138 19 143 0 4 4 7 9 7 5 0 14 -21 20 -46z m5396
-3514 c72 -142 83 -315 51 -755 -9 -121 -20 -335 -26 -475 -11 -305 -59 -747
-89 -830 -12 -35 -20 -46 -20 -32 -1 26 51 481 74 645 18 127 17 117 6 117 -8
0 -64 -215 -110 -423 -10 -49 -22 -92 -27 -95 -4 -4 -4 4 -1 17 3 14 2 30 -3
36 -15 18 -29 354 -36 815 -7 481 -10 456 74 590 l47 75 6 190 c4 105 7 191 8
193 5 9 15 -6 46 -68z m-18849 -131 c18 -29 23 -458 9 -704 -8 -137 -15 -302
-15 -365 0 -71 -10 -182 -26 -290 -38 -254 -41 -277 -43 -257 -2 30 -18 18
-38 -29 l-20 -46 -7 108 c-3 60 -13 231 -22 379 -20 335 -15 476 30 853 33
273 37 296 61 328 26 34 58 44 71 23z m9312 -244 c18 -33 53 -86 78 -119 49
-67 49 -67 29 -151 -18 -77 -19 -157 -1 -200 8 -18 67 -88 130 -154 132 -138
134 -143 84 -231 -65 -115 -68 -123 -68 -183 0 -32 13 -109 30 -174 37 -143
38 -188 5 -233 -29 -40 -31 -60 -9 -102 22 -42 13 -87 -30 -151 -19 -29 -44
-73 -56 -98 -19 -39 -26 -45 -46 -41 -21 4 -24 9 -19 36 3 17 17 105 30 196
14 91 28 177 31 193 11 52 -14 27 -40 -40 -29 -78 -96 -307 -96 -330 0 -9 -2
-14 -5 -12 -7 8 47 596 60 657 3 12 1 22 -4 22 -15 0 -116 -435 -149 -640 -8
-53 -9 -50 -16 65 -10 175 -24 271 -51 350 l-23 70 18 140 c10 77 26 181 34
230 19 106 19 105 6 105 -9 0 -84 -220 -111 -328 -7 -29 -16 -49 -20 -45 -25
28 -58 273 -59 432 0 73 3 87 24 111 28 33 76 216 76 288 0 27 7 69 16 93 8
24 26 91 40 147 27 114 49 165 67 159 7 -2 27 -30 45 -62z m13233 -1220 c-11
-33 -20 -55 -20 -48 -1 17 18 162 27 203 6 30 7 26 10 -30 1 -44 -4 -85 -17
-125z m-493 54 c-21 -95 -23 -101 -32 -71 -7 25 -3 47 19 107 15 42 29 74 31
72 2 -2 -6 -51 -18 -108z m-9603 34 c10 -16 46 -67 81 -114 35 -48 64 -94 64
-103 0 -9 -20 -85 -44 -169 -24 -83 -52 -188 -62 -232 l-19 -80 -3 63 c-2 34
-7 62 -12 62 -5 0 -12 -36 -16 -81 -8 -98 -20 -86 -30 30 -3 47 -9 88 -13 91
-3 3 -14 30 -24 60 -17 52 -17 62 -2 175 28 209 47 325 55 325 4 0 16 -12 25
-27z m-7131 -135 c-4 -54 -10 -98 -13 -98 -3 0 -19 30 -34 66 -31 72 -29 94
16 151 l21 26 8 -23 c5 -13 6 -68 2 -122z m17453 105 c-3 -10 -5 -4 -5 12 0
17 2 24 5 18 2 -7 2 -21 0 -30z m1166 -37 l24 -58 -23 -57 c-13 -31 -29 -80
-35 -109 -12 -50 -13 -52 -25 -31 -11 21 -13 18 -19 -36 -10 -89 -13 -89 -14
2 -1 62 4 93 20 130 40 92 43 122 10 91 -11 -11 -13 -10 -9 2 3 8 14 41 24 72
9 32 19 56 21 55 2 -2 14 -30 26 -61z m-1936 -98 c-2 -13 -4 -3 -4 22 0 25 2
35 4 23 2 -13 2 -33 0 -45z m771 -123 l-3 -100 -19 34 c-15 29 -17 47 -12 109
4 41 10 89 13 106 l7 31 8 -40 c5 -22 7 -85 6 -140z m1232 48 c19 -50 21 -69
14 -138 -4 -44 -9 -74 -11 -67 -8 21 -22 13 -43 -25 l-21 -38 5 40 c3 22 10
95 17 163 7 67 13 122 15 122 1 0 12 -26 24 -57z m-671 -195 c1 -23 -14 -47
-23 -37 -2 2 -6 65 -9 139 l-6 135 19 -105 c10 -58 19 -117 19 -132z m-16525
135 c-8 -86 -14 -110 -24 -93 -4 7 -7 18 -5 24 2 6 9 37 15 69 6 31 13 57 15
57 2 0 1 -26 -1 -57z m-1534 -146 c55 -185 55 -183 34 -191 -9 -4 -18 -5 -20
-3 -5 4 -84 374 -83 384 2 17 31 -65 69 -190z m7400 46 c0 -29 -9 -75 -19
-103 -21 -56 -71 -144 -77 -137 -4 4 13 145 37 312 l12 80 23 -50 c15 -32 24
-69 24 -102z m-12727 -56 c9 -20 30 -45 46 -55 26 -15 49 -57 38 -68 -2 -3
-37 -1 -77 2 l-72 7 5 35 c4 18 12 89 19 155 l13 122 6 -80 c3 -44 13 -97 22
-118z m21994 131 c-2 -13 -4 -5 -4 17 -1 22 1 32 4 23 2 -10 2 -28 0 -40z
m-340 -35 c-2 -16 -4 -5 -4 22 0 28 2 40 4 28 2 -13 2 -35 0 -50z m1843 -7
c-16 -43 -20 -27 -7 29 9 38 13 44 15 24 2 -14 -2 -38 -8 -53z m-15873 32 c-3
-7 -5 -2 -5 12 0 14 2 19 5 13 2 -7 2 -19 0 -25z m-6272 -39 c13 -23 13 -36 0
-95 -8 -38 -15 -129 -16 -204 l-1 -135 -16 55 c-14 52 -20 271 -8 325 2 11 5
40 5 65 1 47 5 46 36 -11z m21632 4 c-3 -10 -5 -2 -5 17 0 19 2 27 5 18 2 -10
2 -26 0 -35z m-2143 -191 c-7 -24 -9 -21 -15 28 -4 30 -4 89 -1 130 l7 75 8
-103 c5 -56 6 -114 1 -130z m3445 74 c-7 -53 -15 -96 -19 -96 -7 0 -30 90 -30
116 0 16 50 87 57 81 2 -2 -2 -48 -8 -101z m-25594 -64 c-11 -91 -17 -49 -8
55 6 78 9 88 11 48 2 -27 1 -74 -3 -103z m2342 126 c-3 -8 -6 -5 -6 6 -1 11 2
17 5 13 3 -3 4 -12 1 -19z m-3786 -109 c-6 -57 -13 -160 -17 -229 -6 -113 -13
-139 -35 -140 -18 0 -13 91 13 240 15 91 31 182 34 203 12 71 15 30 5 -74z
m11959 -19 c0 -113 -2 -130 -16 -130 -13 0 -15 8 -11 43 4 23 9 81 13 130 3
48 8 87 10 87 2 0 4 -58 4 -130z m12099 40 c0 -62 0 -63 -12 -35 -8 17 -11 52
-9 79 6 69 22 37 21 -44z m-13490 7 c10 -45 9 -59 -4 -90 -14 -35 -45 -52 -45
-25 0 35 25 176 30 173 4 -2 12 -28 19 -58z m-9306 -34 c5 -74 3 -83 -12 -83
-15 0 -16 8 -10 68 5 37 8 76 8 86 2 44 9 6 14 -71z m2894 50 c-3 -10 -5 -4
-5 12 0 17 2 24 5 18 2 -7 2 -21 0 -30z m1802 -68 c7 -55 14 -113 16 -130 3
-16 -6 1 -20 38 -20 57 -23 79 -18 133 3 35 7 63 9 62 1 -2 7 -48 13 -103z
m-5003 -91 c-3 -8 -10 -14 -16 -14 -6 0 -10 38 -9 103 l2 102 14 -88 c8 -49
12 -95 9 -103z m25851 144 c-3 -7 -5 -2 -5 12 0 14 2 19 5 13 2 -7 2 -19 0
-25z m-23030 -45 c-2 -16 -4 -5 -4 22 0 28 2 40 4 28 2 -13 2 -35 0 -50z
m-102 -19 c7 -80 4 -94 -18 -75 -12 9 -57 116 -57 134 0 5 24 12 56 16 7 0 14
-28 19 -75z m13446 -60 c13 -63 20 -118 15 -129 -7 -20 -7 -20 -18 0 -5 11
-25 34 -43 50 l-34 30 22 92 c12 50 25 86 29 79 4 -7 17 -62 29 -122z m-12693
-99 c1 -60 1 -60 -14 -31 -13 23 -14 45 -8 125 l8 96 7 -65 c4 -36 7 -92 7
-125z m-5641 153 c-3 -8 -6 -5 -6 6 -1 11 2 17 5 13 3 -3 4 -12 1 -19z m28700
0 c-3 -8 -6 -5 -6 6 -1 11 2 17 5 13 3 -3 4 -12 1 -19z m-21020 -20 c-3 -7 -5
-2 -5 12 0 14 2 19 5 13 2 -7 2 -19 0 -25z m7090 -5 c-3 -10 -5 -4 -5 12 0 17
2 24 5 18 2 -7 2 -21 0 -30z m13013 -7 c0 -24 3 -51 6 -60 7 -19 -5 -20 -28
-3 -14 11 -15 20 -5 60 13 59 27 61 27 3z m-24930 24 c0 -5 -7 -10 -15 -10 -8
0 -15 5 -15 10 0 6 7 10 15 10 8 0 15 -4 15 -10z m3790 -166 c-21 -94 -49
-224 -60 -290 -12 -65 -24 -121 -26 -123 -15 -15 -16 30 -6 189 l11 181 58
109 c31 60 59 108 60 106 2 -1 -15 -79 -37 -172z m-1663 129 c-3 -10 -5 -4 -5
12 0 17 2 24 5 18 2 -7 2 -21 0 -30z m4139 -31 c-13 -12 -17 8 -10 40 l9 33 3
-33 c2 -19 1 -36 -2 -40z m19563 2 c-6 -27 -16 -53 -21 -59 -11 -10 -10 -8 13
73 17 57 23 46 8 -14z m-16739 20 c0 -8 -4 -14 -10 -14 -5 0 -10 9 -10 21 0
11 5 17 10 14 6 -3 10 -13 10 -21z m10700 24 c0 -2 -20 -72 -44 -157 -43 -153
-43 -153 -49 -106 -10 69 -9 130 4 202 l11 63 39 0 c21 0 39 -1 39 -2z
m-24396 -196 l-7 -27 -7 25 c-10 33 -12 144 -3 167 11 25 27 -131 17 -165z
m8590 46 c4 -62 12 -160 18 -216 9 -87 9 -105 -3 -113 -22 -14 -29 -11 -29 13
0 20 -3 19 -29 -12 -16 -19 -32 -32 -36 -28 -4 4 4 84 19 178 14 94 24 175 21
180 -7 11 16 120 25 115 4 -2 10 -55 14 -117z m853 100 c-3 -8 -6 -5 -6 6 -1
11 2 17 5 13 3 -3 4 -12 1 -19z m7070 -10 c-3 -8 -6 -5 -6 6 -1 11 2 17 5 13
3 -3 4 -12 1 -19z m543 -184 c-9 -41 -60 -117 -60 -89 0 11 4 35 9 53 11 37 2
42 -18 11 -26 -43 -28 2 -4 104 13 56 26 109 30 117 10 24 50 -160 43 -196z
m13737 174 c-3 -7 -5 -2 -5 12 0 14 2 19 5 13 2 -7 2 -19 0 -25z m-29070 0
c-3 -8 -6 -5 -6 6 -1 11 2 17 5 13 3 -3 4 -12 1 -19z m510 -85 c-2 -16 -4 -3
-4 27 0 30 2 43 4 28 2 -16 2 -40 0 -55z m20390 45 c-3 -7 -5 -2 -5 12 0 14 2
19 5 13 2 -7 2 -19 0 -25z m-20927 -79 c-12 -52 -25 -110 -30 -129 l-8 -35 -1
43 c-1 38 47 227 56 218 2 -1 -6 -45 -17 -97z m15730 -121 c-15 -242 -24 -287
-35 -171 -5 65 -2 116 16 238 13 86 25 151 28 144 2 -7 -2 -102 -9 -211z
m6116 110 c-6 -105 -13 -127 -39 -128 -4 0 -5 10 -3 23 3 12 13 66 22 120 9
53 19 97 22 97 3 0 2 -50 -2 -112z m3024 47 c0 -53 -3 -65 -16 -65 -10 0 -14
6 -10 15 3 8 8 37 12 65 4 27 8 50 10 50 2 0 4 -29 4 -65z m-9862 -1 c8 -37 6
-60 -14 -131 -39 -141 -43 -125 -17 60 9 64 17 117 19 117 1 0 7 -20 12 -46z
m6451 -77 c27 -127 27 -127 -9 -127 -21 0 -30 5 -30 17 0 15 -1 15 -18 0 -39
-36 -39 -25 0 147 13 55 23 84 28 75 4 -8 17 -58 29 -112z m7661 105 c0 -10
-7 -27 -15 -38 -16 -21 -20 -8 -9 34 8 26 24 29 24 4z m-28152 -9 c5 -10 12
-54 16 -98 4 -44 9 -94 12 -111 5 -28 3 -31 -30 -41 -40 -12 -38 -17 -55 79
-7 37 -4 63 12 118 22 73 30 82 45 53z m14996 -155 c-5 -106 -10 -153 -15
-135 -4 16 -4 67 2 115 5 48 9 111 9 141 0 30 3 52 6 49 3 -4 2 -80 -2 -170z
m6963 135 c-3 -10 -5 -4 -5 12 0 17 2 24 5 18 2 -7 2 -21 0 -30z m-15697 -201
c0 -40 -22 -19 -42 39 -15 42 -18 68 -12 119 l7 65 23 -100 c13 -55 23 -110
24 -123z m16059 201 c0 -5 -4 -17 -9 -28 -8 -18 -9 -17 -9 8 -1 15 4 27 9 27
6 0 10 -3 9 -7z m51 -63 c12 -66 -2 -130 -29 -130 -16 0 -17 5 -5 78 7 42 13
86 13 96 1 32 10 13 21 -44z m-23979 -11 c-5 -30 -9 -42 -10 -28 -1 30 10 92
15 86 3 -2 0 -28 -5 -58z m15816 29 c-3 -7 -5 -2 -5 12 0 14 2 19 5 13 2 -7 2
-19 0 -25z m7740 -54 c-4 -41 -11 -83 -17 -92 -8 -14 -9 -14 -10 -2 0 26 23
170 28 170 3 0 2 -34 -1 -76z m-22519 -26 c-34 -71 -65 -157 -88 -245 -6 -24
-15 -43 -20 -43 -13 0 -12 32 3 146 12 86 15 94 66 163 70 94 89 83 39 -21z
m18496 20 c6 -34 5 -38 -14 -38 -14 0 -20 6 -20 24 0 13 -3 39 -6 57 l-6 34
20 -20 c11 -11 23 -37 26 -57z m2232 -73 c-5 -18 -13 -25 -29 -25 -23 0 -23 1
-15 68 5 37 12 74 15 82 9 23 36 -96 29 -125z m8014 -52 c-23 -57 -80 -136
-80 -111 0 13 42 192 62 263 l11 40 15 -67 c14 -65 14 -69 -8 -125z m-5045
145 c-10 -45 -27 -81 -43 -86 -11 -3 -12 6 -7 44 9 69 12 74 35 74 19 0 21 -4
15 -32z m655 17 c7 -9 8 -15 2 -15 -5 0 -12 7 -16 15 -3 8 -4 15 -2 15 2 0 9
-7 16 -15z m5707 -27 c-3 -8 -6 -5 -6 6 -1 11 2 17 5 13 3 -3 4 -12 1 -19z
m-14907 -115 c-7 -50 -17 -85 -32 -106 -22 -31 -23 -31 -26 -9 -3 21 15 117
40 207 l11 40 8 -29 c4 -16 4 -63 -1 -103z m3483 80 c27 -8 20 -23 -12 -23
-21 0 -30 6 -34 21 -4 16 -2 19 11 14 9 -4 25 -10 35 -12z m11407 -132 c-37
-376 -73 -551 -133 -650 -22 -36 -42 -68 -44 -71 -17 -18 47 297 158 775 28
121 35 102 19 -54z m-29883 107 c-3 -8 -6 -5 -6 6 -1 11 2 17 5 13 3 -3 4 -12
1 -19z m5122 -65 c1 -7 -3 -13 -9 -13 -5 0 -10 15 -9 33 0 27 2 29 9 12 5 -11
9 -26 9 -32z m23651 -10 c-1 -27 -8 -59 -16 -73 l-15 -25 5 25 c3 14 6 46 6
73 0 26 5 47 10 47 6 0 10 -21 10 -47z m-900 -29 c0 -17 -4 -22 -15 -18 -9 4
-15 19 -15 36 0 26 2 29 15 18 8 -7 15 -23 15 -36z m-12365 -131 c5 -26 3 -33
-9 -33 -12 0 -16 10 -16 42 0 47 14 42 25 -9z m13284 -93 c0 -45 -6 -76 -19
-100 l-19 -35 -1 81 c0 87 16 156 31 132 5 -7 9 -42 8 -78z m230 -245 c0 -19
-10 -42 -29 -65 l-29 -35 -1 30 c0 16 10 55 23 87 19 50 23 55 29 36 3 -13 6
-36 7 -53z m331 -126 c-18 -35 -29 -52 -26 -37 3 14 16 68 28 120 l23 93 3
-56 c2 -45 -3 -67 -28 -120z m723 -140 c-10 -24 -43 -79 -73 -122 -46 -66 -55
-75 -58 -55 -1 12 10 61 26 107 27 82 29 84 73 101 24 10 45 17 47 15 1 -1 -5
-22 -15 -46z m-354 -92 c-5 -20 -14 -37 -19 -37 -4 0 -1 18 7 40 20 49 26 47
12 -3z"/>
</g>
</svg>
